<?xml version="1.0" encoding="utf-8"?>
<!-- Generator: Adobe Illustrator 27.1.1, SVG Export Plug-In . SVG Version: 6.00 Build 0)  -->
<svg version="1.1" id="Layer_1" xmlns="http://www.w3.org/2000/svg" xmlns:xlink="http://www.w3.org/1999/xlink" x="0px" y="0px"
	 viewBox="420 228 370 138" style="enable-background:new 0 0 1200 600;" xml:space="preserve">
<g>
	<path d="M479.3,301.8c0.1,0.5-0.3,0.9-0.7,0.9c-1,0.1-11.9-0.1-13.5,0c-1.8,0.1-4,0.1-5.9,0.2c-0.7,0-1.2-0.1-1.2,0.6
		c-0.1,4.9-0.4,25.6-0.4,34.6c0,3.2,0.1,6.3,0.1,9.5c0,2.8,0,5.9-0.1,8.6c0,1-0.5,1.3-1.5,1.3c-3-0.1-8.3,0.1-11.5,0
		c-0.9,0-1.2-0.7-1.2-1.6c-0.1-6.8,0.4-29.8,0.4-36.6c0-3.9-0.1-9.1-0.2-13c0-0.8,0-2.3,0-3.2c0-0.4-0.3-0.3-0.7-0.3
		c-3.6,0-14.3-0.2-18.8-0.1c-0.4-0.1-1.3,0-1.6-0.1c-0.5-0.2-0.4-0.6-0.5-1.3c-0.1-0.6,0-10.1,0.1-10.6c0.5-0.1,1.9-0.1,2.5-0.1
		c2.2,0.1,53.8-0.1,54.3,0c0.6,0.1,0.3,1.1,0.4,1.8C479.3,293.7,478.9,299.8,479.3,301.8z"/>
	<path d="M557.5,357.4c-1.4,0-3.4,0.1-4.8,0c-2.9,0-3.4,0.1-6.1,0c-0.4,0-2.1,0-2.5,0c-1.1,0-1.1-0.4-1.8-1.3
		c-1.4-1.9-2.9-4.4-4.3-6.3c-3.6-4.9-6.7-9.9-10.3-14.8c-1.1-1.5-2.1-3-3.2-4.5c-3-0.1-5.9-0.2-8.4-0.2c-1.1,0-8.1,0-11.4,0
		c-0.9,0-1.7,0.7-1.7,1.7c0,5,0.1,19.4,0.2,20.7c0.1,1,0.1,2,0.1,3.1c0,1.3,0,1.6-0.9,1.6c-0.7,0.1-10.9,0-12,0c-1.3,0-1-0.4-1-2
		c0-4.5,0-36.7,0-41.8c0-2.4-0.1-4.8-0.3-7.2c-0.2-2.6-0.1-5.2-0.1-7.8c0-2-0.1-4.1-0.1-6.1c0-1.4,0.3-2.1,1.7-2.1c1,0,8.3,0,11.6,0
		c4.1,0.2,24.4,0,31.2,0c4.6,0,9.5,1.1,13.2,4.1c4.1,3.3,5.7,9.1,6.3,14.2c0.5,4.1-0.6,7.5-2,11.3c-2,5.2-6,7.9-10.7,9.3
		c1.9,3,4.1,5.8,6.3,8.7c2.5,3.3,4.2,6.9,6.6,10.3c1.5,2.1,3,4.3,4.4,6.4c0.3,0.5,0.7,0.9,0.9,1.4
		C558.9,356.7,558.4,357.4,557.5,357.4z M533.6,318.3c3.2-0.5,5.5-2.2,6.6-5.1c0.6-1.6,0.5-4.6-0.3-6.1c-1.4-2.5-3.3-3.5-6.3-3.9
		c-0.9-0.1-1.8-0.4-2.7-0.4c-2.2-0.1-4.5-0.2-6.7-0.1c-5.3,0-10.6,0.1-15.9,0.1c-1.3,0-2.6,0-3.9,0.1c-0.5,0-1-0.1-1.7,0.1
		c0,5.1,0.1,9.9,0.1,15c0.6,0.1,0.9,0.2,1.2,0.2c3,0.1,5.9,0.2,8.9,0.3C513.6,318.3,531.1,318.8,533.6,318.3z"/>
	<path d="M634.7,357.4c-0.7,0-1.3,0-2,0c-3,0.1-9.7,0-11,0c-1,0-1-0.4-1.5-1.4c-1.4-3.2-3.4-9.7-4.9-12.8c-0.1-0.2-0.2-0.3-0.4-0.5
		c-0.9-0.4-2.2-0.4-3.2-0.4c-1.4,0-19.1-0.2-20.9,0c-0.7,0.1-3.4-0.1-4.2,0c-1.8,3.9-4.3,10.5-6.1,14.5c-0.1,0.3-0.5,0.5-0.8,0.5
		c-1.5,0-5.2,0-6.8,0c-1.8,0-3.4,0-5.2,0c-1.9-0.1-2.3-0.6-1.5-2.5c1.2-3.1,2.3-5.6,3.7-8.7c4-9,14.8-35.8,16.6-40.1
		c1.1-2.6,5.7-13.3,6-13.8c0.4-0.8,1.2-1.9,2.1-2c0.7-0.1,1.4,0.1,2.2,0c1-0.1,2,0,3.1,0l0,0c1.8,0,4.4,0,4.9,0c1.7-0.1,3,0,4.5,0
		c0.2,0.3,0.5,0.7,0.6,0.7c1.6,3.8,3.4,7.6,4.8,11.6c1.5,4.4,4.3,9.8,5.8,14.2c2.9,8.3,6.2,15.3,9.4,23.5c1.6,4.2,3.3,8.1,5.1,12.1
		c0.5,1.1,1.1,2.5,1.6,3.6C637,357.2,636,357.4,634.7,357.4z M611.6,330.2c-2.5-7.6-7.2-19.4-10.1-27.2c-1.6,2.8-7.6,19.1-8.5,21.3
		c-0.8,2.1-1,1.9-2.4,5.5c-0.1,0.3,0.2,0.7,0.5,0.7c1.1,0.1,19,0.1,19.6,0l0.6,0C611.5,330.5,611.7,330.4,611.6,330.2z"/>
	<path d="M644.5,357.4c-0.1-0.6-0.1-1.7-0.1-2.3c0-1.2,0.1-2.4,0.1-3.6c0-1.4,0.2-2.8,0.1-4.2c-0.4-6.8-0.3-14.4-0.3-21.2
		c0-2.9,0-5.8,0-8.6c0.1-3.8,0.2-7.6,0.4-11.4c0.2-4,0.1-8-0.3-12c-0.4-3.5,0.5-3.8,3.4-3.8c5.9-0.1,11.9,0.1,17.8,0
		c1.3,0,3,0.1,4.3,0c5.2,0,5.9,0,11.3,0c2.4,0.2,8.1,0.8,10.3,1.9c3.9,1.9,7.3,4.4,10.2,7.6c0.4,0.4,0.8,0.8,1,1.3
		c1.6,2.7,3.4,5.3,4.6,8.2c1.7,4,2.6,8.1,2.8,12.4c0,0.9,0,1.9,0.1,2.8c0.3,4.6-0.8,9-2,13.4c-0.6,2.3-1.7,4.3-3.2,6.1
		c-1.2,1.5-2.5,3-3.8,4.5c-1.5,1.8-3.4,4-5.5,5.1c-2.4,1.3-7.5,3.6-10.2,3.7c-8.7,0.3-17.8,0-26.6,0
		C656.7,357.4,647.2,357.4,644.5,357.4z M657.9,303.7c0,0.9-0.1,1.7-0.1,2.5c0,4.6,0.1,8.8-0.1,13.4c-0.2,7.1-0.2,16.2-0.1,23.3
		c0,0.5,0.1,1,0.2,1.6c0.5,0,0.9,0.1,1.3,0.1c4.1,0,8.2,0.6,12.3,0.5c1.4,0,2.8-0.1,4.2-0.2c1.8-0.1,3.7-0.3,5.5-0.4
		c4.3-0.3,7.4-1.7,10.4-5.2c4.2-4.8,5.8-10.3,5.5-16.5c-0.2-4.5-1.9-9.1-3.6-12.1c-1.5-2.7-3.8-4-6.4-5.6c-0.4-0.2-0.9-0.4-1.3-0.4
		c-2.1-0.4-4.2-0.8-6.3-1c-5.6-0.7-11.3-0.5-17-0.5C661,303.1,659.5,303.4,657.9,303.7z"/>
	<path d="M736.8,328.6c-0.7,0-1.4,0.1-2.1,0.1c-0.5,2.5-0.2,12.8,0.5,16.2c0.2,0.1,0.3,0.2,0.5,0.2c5.5,0.2,10.4,0.1,15.9-0.1
		c4.8-0.1,13.2,0,18,0c3.3,0,6.5,0.5,9.8,0.1c1-0.1,1.4,0.3,1.5,1.2c0.1,2.6-0.1,3.7,0,6.3c0,0.4,0,1.2-0.1,1.6
		c-0.3,1.7,0.7,3.1-1,3.1c-2.4,0-47.4-0.1-51.2,0c-2.2,0.1-4.4,0-6.4,0c-0.9-0.6-0.9-1.3-0.9-1.9c0-2.8,0.1-5.6,0-8.4
		c-0.2-6.2-0.4-12.9-0.6-19.1c-0.1-2.1,0-4.3,0-6.4c0-0.4,0-0.7,0-1.1c0-5.6,0-11.2,0-16.7c0-3.6-0.2-7.2-0.3-10.9
		c0-1.7,0.8-2.5,2.6-2.5c3-0.1,5.9-0.1,8.9-0.1c7.1,0,36,0.1,41.5,0.2c1.6,0,2.5-0.2,4-0.2c0.4,0,1.3,0,2,0c0.4,0,0.8,0.3,0.8,0.8
		c0.1,1.5,0,6.3,0.1,7.2c0.3,1.6,0,2.6-0.4,4c-0.8,0.7-1.7,0.6-2.5,0.6c-3.1,0-6.1-0.1-9.2-0.1c-7.4,0.2-18.9,0-26.3,0.1
		c-2.2,0-5,0.1-7.2,0.1c-0.2,0.3-0.4,0.5-0.4,0.8c0,4.1,0,8.7,0,12.6c0.5,0.7,1.1,0.6,1.6,0.6c4.6-0.1,30.2,0.2,36-0.1
		c0.4,0,0.7,0,1.1,0.1c0.7,0.2,1.1,0.6,1.3,1.3c0.1,0.3,0.1,0.6,0.1,0.8c0,2.6,0,3.1,0,5.7c0,0.3,0,0.7-0.1,1
		c-0.2,1.7-0.7,2.7-2.2,2.7c-4.4,0-9.7,0.1-14.1,0.1C752,328.6,742.9,328.6,736.8,328.6L736.8,328.6z"/>
</g>
<g>
	<path d="M581.1,236.4c0,0.2,0,0.4,0,0.6l0,0.1c0,0.6,0,1.3,0,1.9c-0.5,0-1.1,0-1.7,0l-8.6,0c0,0,0,16.7,0,17.2l0,0.2
		c0,0.4,0,3.2,0,4.5c-0.4,0-2.5,0-3.1,0c0-1.2,0.1-21.4,0.1-21.4l0-0.5l-0.5,0c0,0-2.9,0-4.2,0c0,0-4.3,0-5.6,0c0-0.7,0-1.7,0-2.5
		c3.6,0,20.6,0,21.7,0l0.5,0C580.2,236.4,580.6,236.4,581.1,236.4z"/>
	<path d="M612.9,256.8c0,0.4,0,2.4,0,3v0c0,0.3,0,0.7,0,1c-0.7,0-1.6,0-2.2,0l-0.3,0c-0.1,0-0.3,0-0.4,0c0-0.4,0-0.7,0-1.1l0-1
		c0-0.9,0-5.2,0-9.5l-11.1,0l-5.4,0c0,4,0,7.5,0,7.5c0,0.4,0,2.4,0,3v0c0,0.3,0,0.7,0,1c-0.7,0-1.6,0-2.2,0l-0.3,0
		c-0.1,0-0.3,0-0.4,0c0-0.4,0-0.7,0-1.1l0-1c0-1.8,0-18.2,0-19.2l0-0.7c0-0.6,0-1.1,0-1.7l0-0.4c0-0.1,0-0.3,0-0.4l1.4,0
		c0.4,0,1.1,0,1.5,0h0c0,0.4,0,5.4,0,10.3l11.9,0.1l4.6-0.1c0-3.6,0-6.7,0-7.1l0-0.7c0-0.6,0-1.1,0-1.7l0-0.4c0-0.1,0-0.3,0-0.4
		l1.5,0c0.4,0,1,0,1.4,0h0C612.9,237.1,612.9,256.7,612.9,256.8z"/>
	<path d="M644.7,260.6L644.7,260.6c0,0.1,0,0.1,0,0.2h-2.3l-4.1,0c-4.7,0-11.2,0-12.1,0c-0.5,0-1.1,0-1.6,0c0-0.2,0-0.4,0-0.6
		c0-0.5,0-6.1,0-9.7c0-1.6,0-2.9,0-3l0-2.2c0-1.5,0-3.2,0-4.8c0-0.9,0-1.7-0.1-2.6l0-0.2c0-0.4,0-0.8,0-1.3c1,0,1.7,0,2.7,0h0.4
		c2.8,0,17,0,17.2,0c0,0.1,0,0.3,0,0.4v0.1c0,1.1-0.1,1.6,0,1.9c0,0.1,0,0.2,0,0.3c-0.4,0-7.4-0.1-8.9-0.1h-0.2c-1.4,0-2.7,0-4.2,0
		c-0.6,0-1.2,0-1.8,0l-2.4,0l0,0.5c0,0,0,0.8,0,1.1c0,1.6,0,2.9,0,3.8v2.4l0.4,0c0.2,0,1.2,0,1.5,0l0,0c0.6,0,1.9-0.1,3.5-0.1l0.4,0
		c3,0,6.7,0,8.4,0c0,0.8,0,1.6,0,2.5c-1.6,0-3.2,0-4.9,0c-1,0-2.1,0-3.2,0h-0.3c-1.3,0-2.6,0-4,0c-0.2,0-0.5,0-0.7,0l-1.3,0l0,0.6
		c0,1.4-0.1,5.8-0.1,6.7v0.1l0,1.4l0.5,0c0.3,0,6.2,0.1,7.7,0.1c1.3,0,2.6,0,3.8,0h0.1c0.6,0,1.2,0,1.9,0h0.5c0.9,0,1.8,0,2.8-0.1
		l0,0.1c0,0.6,0.1,1.2,0.1,2C644.7,260.3,644.7,260.5,644.7,260.6z"/>
</g>
<rect x="451" y="246.6" width="96.5" height="2.7"/>
<rect x="654.7" y="246.6" width="96.5" height="2.7"/>
</svg>
